# xmcd CD database file
#
# Track frame offsets:
#	150
#	22200
#	39600
#	61875
#	77625
#	93300
#	109425
#	121950
#	142500
#	158025
#
# Disc length: 2314 seconds
#
# Revision: 0
# Processed by: cddbd v1.4PL0 Copyright (c) Steve Scherf et al.
# Submitted via: Feurio! 1.62 - http://www.feurio.com
#
DISCID=7b09080a
DTITLE=Woodcocks - The Carp Pond
DYEAR=1900
DGENRE=blues
TTITLE0=The Carp Pond
TTITLE1=Snipe Hunt
TTITLE2=Grudge Man Sorry
TTITLE3=Heart Of Tripe
TTITLE4=Doin The Things
TTITLE5=High Tower
TTITLE6=Ironwood
TTITLE7=Walkie, Walkie, Talkie
TTITLE8=Land Fill
TTITLE9=I May Be Dumb
EXTD=
EXTT0=
EXTT1=
EXTT2=
EXTT3=
EXTT4=
EXTT5=
EXTT6=
EXTT7=
EXTT8=
EXTT9=
PLAYORDER=
